<svg width="20" height="20" viewBox="0 0 20 20" fill="none" xmlns="http://www.w3.org/2000/svg">
<g id="Tick Square">
<path id="Fill 1" fill-rule="evenodd" clip-rule="evenodd" d="M5.665 1.50012C3.135 1.50012 1.5 3.23312 1.5 5.91612V14.0841C1.5 16.7671 3.135 18.5001 5.665 18.5001H14.333C16.864 18.5001 18.5 16.7671 18.5 14.0841V5.91612C18.5 3.23312 16.864 1.50012 14.334 1.50012H5.665ZM14.333 20.0001H5.665C2.276 20.0001 0 17.6221 0 14.0841V5.91612C0 2.37812 2.276 0.00012207 5.665 0.00012207H14.334C17.723 0.00012207 20 2.37812 20 5.91612V14.0841C20 17.6221 17.723 20.0001 14.333 20.0001Z" fill="#131126"/>
<path id="Fill 3" fill-rule="evenodd" clip-rule="evenodd" d="M8.81351 13.1231C8.62251 13.1231 8.42951 13.0501 8.28351 12.9031L5.90951 10.5301C5.61651 10.2371 5.61651 9.76307 5.90951 9.47007C6.20251 9.17707 6.67651 9.17707 6.96951 9.47007L8.81351 11.3121L13.0295 7.09707C13.3225 6.80407 13.7965 6.80407 14.0895 7.09707C14.3825 7.39007 14.3825 7.86407 14.0895 8.15707L9.34351 12.9031C9.19751 13.0501 9.00551 13.1231 8.81351 13.1231Z" fill="#131126"/>
</g>
</svg>
