<svg width="20" height="21" viewBox="0 0 20 21" fill="none" xmlns="http://www.w3.org/2000/svg">
<g id="Time Circle">
<path id="Fill 1" fill-rule="evenodd" clip-rule="evenodd" d="M10 2.00012C5.313 2.00012 1.5 5.81312 1.5 10.5001C1.5 15.1871 5.313 19.0001 10 19.0001C14.687 19.0001 18.5 15.1871 18.5 10.5001C18.5 5.81312 14.687 2.00012 10 2.00012ZM10 20.5001C4.486 20.5001 0 16.0141 0 10.5001C0 4.98612 4.486 0.500122 10 0.500122C15.514 0.500122 20 4.98612 20 10.5001C20 16.0141 15.514 20.5001 10 20.5001Z" fill="#131126"/>
<path id="Fill 3" fill-rule="evenodd" clip-rule="evenodd" d="M13.4312 14.1925C13.3002 14.1925 13.1682 14.1585 13.0472 14.0875L9.27719 11.8385C9.05119 11.7025 8.91119 11.4575 8.91119 11.1935V6.34552C8.91119 5.93152 9.24719 5.59552 9.66119 5.59552C10.0762 5.59552 10.4112 5.93152 10.4112 6.34552V10.7675L13.8162 12.7975C14.1712 13.0105 14.2882 13.4705 14.0762 13.8265C13.9352 14.0615 13.6862 14.1925 13.4312 14.1925Z" fill="#131126"/>
</g>
</svg>
