<svg width="20" height="22" viewBox="0 0 20 22" fill="none" xmlns="http://www.w3.org/2000/svg">
<g id="Upload">
<g id="Group 3">
<mask id="mask0_128_70" style="mask-type:luminance" maskUnits="userSpaceOnUse" x="0" y="7" width="20" height="15">
<path id="Clip 2" fill-rule="evenodd" clip-rule="evenodd" d="M0.000427246 7.29425H20V21.0383H0.000427246V7.29425Z" fill="white"/>
</mask>
<g mask="url(#mask0_128_70)">
<path id="Fill 1" fill-rule="evenodd" clip-rule="evenodd" d="M15.5654 21.0383H4.43543C1.99043 21.0383 0.000427246 19.0493 0.000427246 16.6033V11.7283C0.000427246 9.28325 1.99043 7.29425 4.43543 7.29425H5.36843C5.78243 7.29425 6.11843 7.63025 6.11843 8.04425C6.11843 8.45825 5.78243 8.79425 5.36843 8.79425H4.43543C2.81643 8.79425 1.50043 10.1103 1.50043 11.7283V16.6033C1.50043 18.2222 2.81643 19.5383 4.43543 19.5383H15.5654C17.1834 19.5383 18.5004 18.2222 18.5004 16.6033V11.7193C18.5004 10.1063 17.1884 8.79425 15.5764 8.79425H14.6334C14.2194 8.79425 13.8834 8.45825 13.8834 8.04425C13.8834 7.63025 14.2194 7.29425 14.6334 7.29425H15.5764C18.0154 7.29425 20.0004 9.27925 20.0004 11.7193V16.6033C20.0004 19.0493 18.0104 21.0383 15.5654 21.0383Z" fill="#131126"/>
</g>
</g>
<g id="Group 6">
<mask id="mask1_128_70" style="mask-type:luminance" maskUnits="userSpaceOnUse" x="9" y="0" width="2" height="15">
<path id="Clip 5" fill-rule="evenodd" clip-rule="evenodd" d="M9.25 0.500244H10.75V14.0411H9.25V0.500244Z" fill="white"/>
</mask>
<g mask="url(#mask1_128_70)">
<path id="Fill 4" fill-rule="evenodd" clip-rule="evenodd" d="M10 14.0411C9.586 14.0411 9.25 13.7051 9.25 13.2911V1.25012C9.25 0.836122 9.586 0.500122 10 0.500122C10.414 0.500122 10.75 0.836122 10.75 1.25012V13.2911C10.75 13.7051 10.414 14.0411 10 14.0411Z" fill="#131126"/>
</g>
</g>
<path id="Fill 7" fill-rule="evenodd" clip-rule="evenodd" d="M7.08502 4.92883C6.89402 4.92883 6.70202 4.85583 6.55602 4.70983C6.26302 4.41783 6.26102 3.94383 6.55402 3.64983L9.46902 0.721833C9.75002 0.438833 10.25 0.438833 10.531 0.721833L13.447 3.64983C13.739 3.94383 13.738 4.41783 13.445 4.70983C13.151 5.00183 12.677 5.00183 12.385 4.70783L10 2.31383L7.61602 4.70783C7.47002 4.85583 7.27702 4.92883 7.08502 4.92883Z" fill="#131126"/>
</g>
</svg>
